<mxfile host="app.diagrams.net" agent="Mozilla/5.0 (Macintosh; Intel Mac OS X 10_15_7) AppleWebKit/537.36 (KHTML, like Gecko) Chrome/140.0.0.0 Safari/537.36" version="28.2.5">
  <diagram name="第 1 页" id="zXa76Hk7P29VrVAosaVa">
    <mxGraphModel dx="946" dy="603" grid="0" gridSize="10" guides="1" tooltips="1" connect="1" arrows="1" fold="1" page="1" pageScale="1" pageWidth="9000" pageHeight="9020" math="0" shadow="0">
      <root>
        <mxCell id="0" />
        <mxCell id="1" parent="0" />
        <mxCell id="matDi5zSS8P4dyu_T_uE-21" value="webhook信号管理" style="rounded=1;whiteSpace=wrap;html=1;" vertex="1" parent="1">
          <mxGeometry x="121" y="298" width="120" height="60" as="geometry" />
        </mxCell>
        <mxCell id="matDi5zSS8P4dyu_T_uE-24" value="运行" style="rounded=1;whiteSpace=wrap;html=1;" vertex="1" parent="1">
          <mxGeometry x="367" y="207" width="120" height="60" as="geometry" />
        </mxCell>
        <mxCell id="matDi5zSS8P4dyu_T_uE-25" value="创建" style="rounded=1;whiteSpace=wrap;html=1;" vertex="1" parent="1">
          <mxGeometry x="367" y="113" width="120" height="60" as="geometry" />
        </mxCell>
        <mxCell id="matDi5zSS8P4dyu_T_uE-26" value="暂定" style="rounded=1;whiteSpace=wrap;html=1;" vertex="1" parent="1">
          <mxGeometry x="373" y="298" width="120" height="60" as="geometry" />
        </mxCell>
        <mxCell id="matDi5zSS8P4dyu_T_uE-27" value="详情" style="rounded=1;whiteSpace=wrap;html=1;" vertex="1" parent="1">
          <mxGeometry x="373" y="395" width="120" height="60" as="geometry" />
        </mxCell>
        <mxCell id="matDi5zSS8P4dyu_T_uE-28" value="列表" style="rounded=1;whiteSpace=wrap;html=1;" vertex="1" parent="1">
          <mxGeometry x="373" y="487" width="120" height="60" as="geometry" />
        </mxCell>
      </root>
    </mxGraphModel>
  </diagram>
</mxfile>
